<svg version="1.1" id="Layer_1" xmlns="http://www.w3.org/2000/svg" xmlns:xlink="http://www.w3.org/1999/xlink" x="0px" y="0px"
	 width="100%" viewBox="0 0 270 270" enable-background="new 0 0 270 270" xml:space="preserve">
<path fill="#000000" opacity="1.000000" stroke="none" 
	d="
M121.000000,271.000000 
	C114.645599,271.000000 108.291206,271.000000 101.468399,270.531342 
	C101.000000,237.207947 101.000000,204.353210 101.000000,171.000000 
	C67.124908,171.000000 34.062454,171.000000 1.000000,171.000000 
	C1.000000,164.645599 1.000000,158.291214 1.468657,151.468414 
	C32.882637,150.999664 63.828438,150.914520 94.772758,151.090256 
	C99.426453,151.116684 101.138718,149.974411 101.102898,145.011200 
	C100.891418,115.712082 100.900139,86.409996 101.097343,57.110683 
	C101.129684,52.305115 99.706696,50.873295 94.894638,50.902706 
	C63.597397,51.094040 32.298412,51.000381 1.000000,51.000000 
	C1.000000,34.366539 1.000000,17.733078 1.000000,1.000000 
	C57.354191,1.000000 113.708435,1.000000 170.531342,1.468657 
	C171.000000,34.848839 171.000000,67.760361 171.000000,101.000000 
	C204.760391,101.000000 237.880188,101.000000 271.000000,101.000000 
	C271.000000,157.553772 271.000000,214.107544 271.000000,271.000000 
	C254.647324,271.000000 238.292328,271.000000 221.468658,270.531342 
	C221.000000,237.147324 221.000000,204.231949 221.000000,171.316040 
	C187.301483,171.316040 154.386292,171.316040 121.000000,171.316040 
	C121.000000,204.753235 121.000000,237.876617 121.000000,271.000000 
z"/>
<path fill="#2F2D4D" opacity="1.000000" stroke="none" 
	d="
M1.000000,51.468658 
	C32.298412,51.000381 63.597397,51.094040 94.894638,50.902706 
	C99.706696,50.873295 101.129684,52.305115 101.097343,57.110683 
	C100.900139,86.409996 100.891418,115.712082 101.102898,145.011200 
	C101.138718,149.974411 99.426453,151.116684 94.772758,151.090256 
	C63.828438,150.914520 32.882637,150.999664 1.468657,151.000000 
	C1.000000,117.979103 1.000000,84.958214 1.000000,51.468658 
z"/>
<path fill="#837EB4" opacity="1.000000" stroke="none" 
	d="
M271.000000,100.531342 
	C237.880188,101.000000 204.760391,101.000000 171.000000,101.000000 
	C171.000000,67.760361 171.000000,34.848839 171.000000,1.468657 
	C204.260269,1.000000 237.520523,1.000000 271.000000,1.000000 
	C271.000000,34.020573 271.000000,67.041626 271.000000,100.531342 
z"/>
<path fill="#454372" opacity="1.000000" stroke="none" 
	d="
M1.000000,171.468658 
	C34.062454,171.000000 67.124908,171.000000 101.000000,171.000000 
	C101.000000,204.353210 101.000000,237.207947 101.000000,270.531342 
	C67.739731,271.000000 34.479465,271.000000 1.000000,271.000000 
	C1.000000,237.979431 1.000000,204.958374 1.000000,171.468658 
z"/>
<path fill="#5E5B9A" opacity="1.000000" stroke="none" 
	d="
M121.468658,271.000000 
	C121.000000,237.876617 121.000000,204.753235 121.000000,171.316040 
	C154.386292,171.316040 187.301483,171.316040 221.000000,171.316040 
	C221.000000,204.231949 221.000000,237.147324 221.000000,270.531342 
	C187.979111,271.000000 154.958206,271.000000 121.468658,271.000000 
z"/>
</svg>